<svg width="13" height="14" viewBox="0 0 13 14" fill="none" xmlns="http://www.w3.org/2000/svg">
<path d="M2.60465 14C1.94072 14 1.27679 13.7446 0.766074 13.2339C-0.255358 12.238 -0.255358 10.5782 0.766074 9.55677L7.83949 2.50889C8.45235 1.89603 9.47378 1.89603 10.0866 2.50889C10.3931 2.81532 10.5463 3.19836 10.5463 3.63247C10.5463 4.06658 10.3931 4.44961 10.0866 4.75604L4.46876 10.3228C4.26448 10.5271 3.93251 10.5271 3.70269 10.3228C3.4984 10.1186 3.4984 9.78659 3.70269 9.55677L9.29503 3.96443C9.39717 3.86229 9.44825 3.73461 9.44825 3.60693C9.44825 3.47925 9.39717 3.35157 9.29503 3.24943C9.09074 3.04514 8.75878 3.04514 8.58003 3.24943L1.53215 10.3228C0.944824 10.9102 0.944824 11.9061 1.53215 12.4934C2.11947 13.0807 3.11537 13.0807 3.70269 12.4934L10.7506 5.41997C11.2358 4.93479 11.4911 4.2964 11.4911 3.60693C11.4911 2.91747 11.2358 2.27907 10.7506 1.79389C9.75467 0.797994 8.14592 0.797994 7.15002 1.79389L1.55768 7.41177C1.3534 7.61605 1.02143 7.61605 0.79161 7.41177C0.587323 7.20748 0.587323 6.87551 0.79161 6.64569L6.40949 1.05335C7.81395 -0.351117 10.1122 -0.351117 11.5422 1.05335C12.2316 1.74282 12.6147 2.63657 12.6147 3.60693C12.6147 4.57729 12.2316 5.49658 11.5422 6.16051L4.46876 13.2339C3.95805 13.7446 3.31965 14 2.60465 14Z" fill="black"/>
</svg>
