<svg width="47" height="52" viewBox="0 0 47 52" fill="none" xmlns="http://www.w3.org/2000/svg">
<g clip-path="url(#clip0_1_21)">
<g opacity="0.8">
<path d="M30.9093 35.146L36.351 35.024C53.6261 25.0181 44.6888 17.0435 44.6888 17.0435C45.9363 8.77521 39.1964 8.38424 39.1964 8.38424C37.5479 1.6819 30.0607 2.9541 30.0607 2.9541C24.7182 -2.28366 19.3271 2.46177 19.3271 2.46177C11.289 -0.423964 9.09161 7.57541 9.09161 7.57541C2.20183 8.52904 2.95118 15.4279 2.95118 15.4279L2.8773 15.6472C-6.40829 25.2621 9.76708 34.875 9.76708 34.875L16.9566 35.0219C16.9566 35.0219 -1.06575 36.6768 2.1575 43.5964C4.11425 47.7957 7.73223 47.6984 9.28159 48.7472C13.9993 51.9391 17.8305 50.6069 17.8305 50.6069C24.0216 52.6135 28.0153 50.6566 28.0153 50.6566C34.8544 51.6847 37.2523 47.9653 37.2523 47.9653C58.0695 39.5481 30.9093 35.146 30.9093 35.146ZM42.8123 17.5958L42.825 17.6724C42.825 17.6786 42.825 17.6868 42.825 17.6931C43.6588 23.1004 36.769 27.9348 36.769 27.9348C36.769 27.9348 42.9537 21.6214 42.825 17.6931C42.8186 17.66 42.8165 17.6269 42.8123 17.5958ZM37.2397 9.94812L37.265 10.0702C37.2671 10.0846 37.2671 10.0971 37.2692 10.1115C38.9959 18.8722 31.9985 28.2948 31.9985 28.2948C31.9985 28.2948 37.989 16.5781 37.2692 10.1115C37.2587 10.0578 37.2523 10.0019 37.2397 9.94812ZM5.20556 17.691C5.20556 17.6848 5.20556 17.6765 5.20556 17.6703L5.21822 17.5938C5.21189 17.6269 5.20978 17.66 5.20556 17.691C5.07679 21.6193 11.2616 27.9327 11.2616 27.9327C11.2616 27.9327 4.37177 23.0984 5.20556 17.691ZM10.7592 10.1115C10.7613 10.0971 10.7613 10.0846 10.7634 10.0702L10.7887 9.94812C10.7782 10.0019 10.7697 10.0578 10.7592 10.1115C10.0394 16.5781 16.0299 28.2948 16.0299 28.2948C16.0299 28.2948 9.03251 18.8722 10.7592 10.1115ZM28.8195 5.90396L28.8786 6.05497C28.8808 6.06117 28.8829 6.06738 28.8829 6.07359C33.0433 16.8925 26.4575 30.4316 26.4575 30.4316C26.4575 30.4316 31.266 14.1619 28.8829 6.07359C28.8618 6.01566 28.8428 5.95981 28.8195 5.90396ZM19.1498 6.05497L19.2089 5.90396C19.1857 5.95981 19.1667 6.01773 19.1455 6.07359C16.7624 14.164 21.5709 30.4316 21.5709 30.4316C21.5709 30.4316 14.9851 16.8925 19.1455 6.07152C19.1477 6.06738 19.1477 6.06117 19.1498 6.05497ZM23.3208 46.4966C13.0093 46.4966 4.64829 44.7383 4.64829 42.5683C4.64829 42.2538 4.82983 41.9477 5.16334 41.6539C7.12431 43.3812 14.5059 44.6679 23.3208 44.6679C32.1357 44.6679 39.5173 43.3833 41.4783 41.6539C41.8118 41.9477 41.9933 42.2538 41.9933 42.5683C41.9933 44.7383 33.6323 46.4966 23.3208 46.4966Z" fill="white"/>
<path d="M42.825 17.6931C42.825 17.6868 42.825 17.6786 42.825 17.6724L42.8123 17.5958C42.8165 17.6269 42.8186 17.66 42.825 17.6931ZM42.825 17.6931C43.6588 23.1004 36.769 27.9348 36.769 27.9348C36.769 27.9348 42.9537 21.6214 42.825 17.6931ZM37.2692 10.1115C37.2671 10.0971 37.2671 10.0846 37.265 10.0702L37.2397 9.94812C37.2523 10.0019 37.2587 10.0578 37.2692 10.1115ZM37.2692 10.1115C38.9959 18.8722 31.9985 28.2948 31.9985 28.2948C31.9985 28.2948 37.989 16.5781 37.2692 10.1115ZM5.20556 17.691C5.20556 17.6848 5.20556 17.6765 5.20556 17.6703L5.21822 17.5938C5.21189 17.6269 5.20978 17.66 5.20556 17.691ZM5.20556 17.691C5.07679 21.6193 11.2616 27.9327 11.2616 27.9327C11.2616 27.9327 4.37177 23.0984 5.20556 17.691ZM10.7592 10.1115C10.7613 10.0971 10.7613 10.0846 10.7634 10.0702L10.7887 9.94812C10.7782 10.0019 10.7697 10.0578 10.7592 10.1115ZM10.7592 10.1115C10.0394 16.5781 16.0299 28.2948 16.0299 28.2948C16.0299 28.2948 9.03251 18.8722 10.7592 10.1115ZM28.8829 6.07359C28.8829 6.06738 28.8808 6.06117 28.8786 6.05497L28.8195 5.90396C28.8428 5.95981 28.8618 6.01566 28.8829 6.07359ZM28.8829 6.07359C33.0433 16.8925 26.4575 30.4316 26.4575 30.4316C26.4575 30.4316 31.266 14.1619 28.8829 6.07359ZM30.9093 35.146L36.351 35.024C53.6261 25.0181 44.6888 17.0435 44.6888 17.0435C45.9363 8.77521 39.1964 8.38424 39.1964 8.38424C37.5479 1.6819 30.0607 2.9541 30.0607 2.9541C24.7182 -2.28366 19.3271 2.46177 19.3271 2.46177C11.289 -0.423964 9.09161 7.57541 9.09161 7.57541C2.20183 8.52904 2.95118 15.4279 2.95118 15.4279L2.8773 15.6472C-6.40829 25.2621 9.76708 34.875 9.76708 34.875L16.9566 35.0219C16.9566 35.0219 -1.06575 36.6768 2.1575 43.5964C4.11425 47.7957 7.73223 47.6984 9.28159 48.7472C13.9993 51.9391 17.8305 50.6069 17.8305 50.6069C24.0216 52.6135 28.0153 50.6566 28.0153 50.6566C34.8544 51.6847 37.2523 47.9653 37.2523 47.9653C58.0695 39.5481 30.9093 35.146 30.9093 35.146ZM19.1498 6.05497L19.2089 5.90396C19.1857 5.95981 19.1667 6.01773 19.1456 6.07359C16.7624 14.164 21.5709 30.4316 21.5709 30.4316C21.5709 30.4316 14.9851 16.8925 19.1456 6.07152C19.1477 6.06738 19.1477 6.06117 19.1498 6.05497ZM23.3208 46.4966C13.0093 46.4966 4.64829 44.7382 4.64829 42.5683C4.64829 42.2538 4.82983 41.9477 5.16334 41.6539C7.12431 43.3812 14.5059 44.6679 23.3208 44.6679C32.1357 44.6679 39.5173 43.3833 41.4783 41.6539C41.8118 41.9477 41.9933 42.2538 41.9933 42.5683C41.9933 44.7382 33.6323 46.4966 23.3208 46.4966Z" stroke="black" stroke-width="0.206862" stroke-miterlimit="10"/>
</g>
<path d="M23.6696 43.2678C27.8396 43.2678 31.2201 39.955 31.2201 35.8683C31.2201 31.7817 27.8396 28.4689 23.6696 28.4689C19.4996 28.4689 16.1191 31.7817 16.1191 35.8683C16.1191 39.955 19.4996 43.2678 23.6696 43.2678Z" fill="url(#paint0_radial_1_21)"/>
</g>
<defs>
<radialGradient id="paint0_radial_1_21" cx="0" cy="0" r="1" gradientUnits="userSpaceOnUse" gradientTransform="translate(23.6704 35.8693) scale(7.54951 7.39852)">
<stop stop-color="#DBBEDC"/>
<stop offset="1" stop-color="#3C1F50"/>
</radialGradient>
<clipPath id="clip0_1_21">
<rect width="47" height="51.0206" fill="white" transform="translate(0 0.490234)"/>
</clipPath>
</defs>
</svg>
