<svg width="15" height="16" viewBox="0 0 15 16" fill="none" xmlns="http://www.w3.org/2000/svg">
<path d="M10.4635 10.0052L10.0839 10.3826C10.0839 10.3826 9.18174 11.2797 6.71924 8.83107C4.25676 6.38258 5.15891 5.48555 5.15891 5.48555L5.39791 5.24789C5.98674 4.66244 6.04224 3.7225 5.52849 3.03631L4.47771 1.63264C3.84189 0.783345 2.6133 0.671154 1.88454 1.39577L0.57654 2.69634C0.21519 3.05564 -0.0269598 3.5214 0.00240683 4.03808C0.0775318 5.35992 0.675589 8.20399 4.01279 11.5222C7.55174 15.0411 10.8723 15.1809 12.2302 15.0543C12.6597 15.0143 13.0332 14.7956 13.3342 14.4962L14.5181 13.3192C15.3172 12.5246 15.0918 11.1625 14.0694 10.6067L12.4773 9.74124C11.806 9.37632 10.9882 9.48349 10.4635 10.0052Z" fill="white"/>
</svg>
