<svg width="40" height="46" viewBox="0 0 40 46" fill="none" xmlns="http://www.w3.org/2000/svg">
<path d="M3.6428 0C1.64283 0 0 1.65312 0 3.66562V42.3344C0 44.3469 1.64283 46 3.6428 46H36.3566C38.3566 46 39.9994 44.3469 39.9994 42.3344V14.5906L26.4996 0H3.6428Z" fill="#8C181A"/>
<path d="M39.9992 14.6633V15.382H30.8565C30.8565 15.382 26.3566 14.4477 26.4994 10.5664C26.4994 10.5664 26.6423 14.6633 30.7851 14.6633H39.9992Z" fill="#6B0D12"/>
<path opacity="0.5" d="M26.5 0V10.4938C26.5 11.7156 27.2857 14.6625 30.8571 14.6625H39.9998L26.5 0Z" fill="white"/>
<path d="M10.6395 35.218H8.28235V38.1648C8.28235 38.4523 8.06807 38.668 7.71093 38.668C7.42522 38.668 7.21094 38.4523 7.21094 38.1648V30.8336C7.21094 30.4023 7.56807 30.043 7.99664 30.043H10.6395C12.3537 30.043 13.3537 31.2648 13.3537 32.6305C13.3537 34.068 12.3537 35.218 10.6395 35.218ZM10.568 30.9773H8.28235V34.2836H10.568C11.568 34.2836 12.2823 33.6367 12.2823 32.6305C12.2823 31.6242 11.568 30.9773 10.568 30.9773ZM17.9965 38.668H15.8537C15.4251 38.668 15.068 38.3086 15.068 37.8773V30.8336C15.068 30.4023 15.4251 30.043 15.8537 30.043H17.9965C20.6393 30.043 22.425 31.9117 22.425 34.3555C22.425 36.7992 20.7107 38.668 17.9965 38.668ZM17.9965 30.9773H16.1394V37.6617H17.9965C20.0679 37.6617 21.2822 36.1523 21.2822 34.2836C21.3536 32.4867 20.1393 30.9773 17.9965 30.9773ZM29.6392 30.9773H25.4964V33.7805H29.5678C29.8535 33.7805 29.9963 33.9961 29.9963 34.2836C29.9963 34.5711 29.782 34.7148 29.5678 34.7148H25.4964V38.1648C25.4964 38.4523 25.2821 38.668 24.925 38.668C24.6393 38.668 24.425 38.4523 24.425 38.1648V30.8336C24.425 30.4023 24.7821 30.043 25.2107 30.043H29.6392C29.9249 30.043 30.0678 30.2586 30.0678 30.5461C30.1392 30.7617 29.9249 30.9773 29.6392 30.9773Z" fill="white"/>
</svg>
